<svg height="128" viewBox="0 0 128 128" width="128" xmlns="http://www.w3.org/2000/svg"><g fill="none" stroke="#fff"><path d="m22.947472 68.19429c41.591766 45.945282 81.6679-.262779 81.742958-.347832" stroke-width="8.608659"/><path d="m104.967476 73.512085c-41.591759-45.94529-81.667904.262772-81.742958.347839" stroke-width="8.608659"/><path d="m98.966347 54.666702 11.358925-11.913009" stroke-width="5.165195"/><path d="m88.16153 48.294617 8.034355-14.960511" stroke-width="5.165195"/><path d="m75.694427 43.584831 4.709786-15.791664" stroke-width="5.165195"/><path d="m62.673229 42.753693v-17.730996" stroke-width="5.165195"/><path d="m50.483173 44.138931-4.709793-16.899856" stroke-width="5.165195"/><path d="m38.016075 48.571671-7.480265-13.852334" stroke-width="5.165195"/><path d="m28.042391 55.497833-9.973677-12.467094" stroke-width="5.165195"/></g><path d="m74.586235 70.319824c0 5.890831-4.899498 10.666291-10.943336 10.666291-6.04385 0-10.943348-4.77546-10.943348-10.666291 0-5.890838 4.899498-10.666305 10.943348-10.666305 6.043838 0 10.943336 4.775467 10.943336 10.666305z" fill="#fff"/></svg>