<svg height="62" viewBox="0 0 300 62" width="300" xmlns="http://www.w3.org/2000/svg"><g fill="#fff" fill-rule="evenodd"><path d="m88.133438 30.267893c.948151 0 1.820526.151457 2.617172.454376.796639.302918 1.4833.745071 2.060013 1.326479.576706.581402 1.026329 1.294716 1.3489 2.139954.322563.845237.483841 1.810161.483841 2.894802 0 .273601-.012215.500786-.036652.681556-.024437.180775-.06842.322461-.131958.425065-.063537.1026-.149063.17588-.256584.219856-.107529.043968-.244369.065956-.410538.065956h-9.295707c.107521 1.543899.522949 2.677383 1.246277 3.400474.723327.723092 1.681228 1.084633 2.873748 1.084633.58648 0 1.092316-.068397 1.51751-.2052.425209-.136803.796638-.288257 1.114319-.454372.317672-.166119.596252-.317574.835731-.454373.239479-.136802.471626-.205204.696442-.205204.146622 0 .273689.029316.381218.087944.107521.058628.200378.14169.278572.249173l1.055672 1.319152c-.400773.469033-.850396.862328-1.348908 1.179901-.498512.317578-1.019005.571633-1.561508.762177-.542496.190544-1.094757.324902-1.656799.403076-.56205.078171-1.10698.117256-1.634819.117256-1.045891 0-2.018464-.173439-2.917733-.520332-.899276-.346886-1.681236-.859886-2.345916-1.539009-.664681-.679119-1.187622-1.519459-1.568833-2.521042-.381218-1.001579-.571823-2.16193-.571823-3.481087 0-1.026008.166176-1.990936.498512-2.894802.332337-.903866.808853-1.690464 1.429543-2.359813.620697-.669348 1.378219-1.199444 2.272606-1.590306.894386-.390861 1.903618-.58629 3.027702-.58629zm.073311 2.594328c-1.055664 0-1.881622.298027-2.477875.894092-.596252.596066-.977463 1.441288-1.143638 2.535698h6.803169c0-.469036-.063538-.91119-.190605-1.326477-.127068-.415294-.322563-.779278-.58648-1.091965-.263916-.312686-.596252-.559413-.997016-.740188-.400765-.180775-.869942-.27116-1.407555-.27116zm-10.380692-9.102135v21.780632h-3.621513v-21.780632zm-9.984817 21.780632c-.469185 0-.777084-.219856-.923706-.659576l-.293244-1.451065c-.312789.351776-.640235.669345-.982345.95272-.342117.283371-.711113.527657-1.106987.732861s-.821068.363987-1.275593.47636c-.454521.112373-.945694.168556-1.473534.168556-.821067 0-1.573711-.170997-2.257942-.513-.684227-.342003-1.273147-.837906-1.766769-1.487709-.493626-.649807-.874832-1.453503-1.143639-2.411114-.268802-.957607-.403202-2.052006-.403202-3.283215 0-1.113956.151505-2.149723.454521-3.10733.303017-.957611.737984-1.788177 1.304921-2.49173.566928-.703548 1.246261-1.253187 2.038013-1.648937.791752-.395744 1.68124-.593616 2.668488-.593616.840618 0 1.559051.134357 2.155311.403074s1.128967.627815 1.598152 1.077305v-7.944216h3.621521v21.780632zm-4.823799-2.652958c.752659 0 1.392891-.156341 1.920723-.469032.527839-.312687 1.026336-.757286 1.495521-1.333805v-6.742321c-.41053-.498348-.857719-.850117-1.341568-1.055321-.483848-.205204-1.004348-.3078-1.561504-.3078-.547382 0-1.043442.102596-1.488194.3078-.444747.205204-.821067.515446-1.128971.930733-.307907.415294-.544937.942943-.711109 1.582981-.166168.640034-.249248 1.394874-.249248 2.264541 0 .879437.070861 1.624505.212593 2.235222.141735.610726.344558 1.109063.608474 1.495041.263913.385971.586476.664459.967694.835457.38121.171005.806404.256504 1.275589.256504zm-22.43285 2.652958v-15.038307h2.213959c.469188 0 .777088.219856.923706.659572l.249256 1.187237c.303017-.31269.623131-.59606.960361-.850118.337227-.254061.694001-.473915 1.070324-.659575.376328-.185659.779526-.327345 1.209614-.42506.430088-.097716.899269-.146574 1.407551-.146574.821079 0 1.549282.139246 2.184639.417734s1.165626.669344 1.590828 1.172575c.425197.503233.747761 1.104177.967689 1.802839.219933.698662.329899 1.468163.329899 2.30851v9.571167h-3.621513v-9.571167c0-.918522-.212597-1.629391-.637799-2.132622-.425201-.503235-1.062992-.754848-1.913391-.754848-.625579 0-1.212055.141685-1.759437.42506-.547386.283375-1.065438.669342-1.554177 1.157921v10.875656zm-3.562866 0h-1.62748c-.342117 0-.610916-.0513-.806412-.1539-.195495-.1026-.342109-.310246-.439861-.622933l-.322559-1.069976c-.381214.342003-.755093.642471-1.121643.90142-.366551.258942-.745318.476357-1.136307.652245s-.806406.3078-1.246267.395744c-.439864.087944-.928591.131912-1.4662.131912-.635357 0-1.221831-.085495-1.75944-.2565-.537609-.171001-.999456-.427498-1.385559-.769501-.386101-.342002-.68667-.767059-.901712-1.27518-.215044-.508122-.322565-1.099289-.322565-1.773526 0-.566749.149063-1.126159.447191-1.678249s.794189-1.050434 1.488193-1.495037 1.617701-.813473 2.771117-1.106621c1.153417-.293144 2.585392-.459259 4.295961-.498344v-.879433c0-1.00647-.212593-1.751537-.637794-2.235229-.425198-.483689-1.043442-.725529-1.854741-.725529-.586483 0-1.075212.068401-1.466199.2052-.39099.136799-.730656.290699-1.019011.461704-.288355.170998-.55471.324898-.799076.461701-.24437.136802-.51317.2052-.80641.2052-.244369 0-.454521-.063515-.630466-.190544-.175944-.12703-.317675-.283371-.4252-.469029l-.65979-1.157924c1.730126-1.582983 3.816994-2.374466 6.260672-2.374466.879724 0 1.664133.144129 2.35325.432388.689118.288261 1.273148.688887 1.75211 1.201891.478962.513006.843063 1.126158 1.092319 1.839483.249253.713322.373879 1.495034.373879 2.345154zm-7.037758-2.257214c.371439 0 .71355-.034198 1.02634-.1026.312794-.068401.608471-.171001.887051-.307804.27858-.136799.547382-.305359.806412-.505668.259029-.200318.5205-.437275.784412-.710877v-2.535702c-1.055668.048859-1.93782.139245-2.646486.271161-.708668.131916-1.278036.300472-1.708124.505672-.430085.205204-.735541.444599-.916375.718205-.18083.273605-.271246.571632-.271246.894088 0 .635151.18816 1.089524.564486 1.363121.376328.273606.8675.410404 1.47353.410404zm-9.632929-2.740898c.215042 0 .400761.083058.557156.249173l1.55417 1.685577c-.860174 1.065098-1.91827 1.881012-3.17432 2.447758-1.256052.566749-2.763777.850116-4.523227.850116-1.573728 0-2.988596-.268711-4.244647-.806144-1.256051-.537434-2.328809-1.284943-3.218308-2.242554-.889498-.957611-1.571274-2.100861-2.045348-3.429791-.474073-1.328929-.711107-2.779979-.711107-4.353195 0-1.592754.263913-3.051136.791748-4.375179s1.270701-2.464851 2.228623-3.422462c.957922-.957608 2.10399-1.702675 3.438238-2.235222 1.334248-.532551 2.807764-.798821 4.420591-.798821 1.573728 0 2.9495.251614 4.127351.754849 1.177855.503231 2.187079 1.170128 3.027704 2.000709l-1.31958 1.832154c-.078197.117256-.178388.219856-.300571.3078-.122185.08794-.290795.131916-.505839.131916-.224819 0-.454521-.087944-.689113-.263832-.234595-.175888-.532719-.366429-.894383-.571629-.361664-.205204-.818624-.395748-1.370895-.571636-.552271-.175884-1.253597-.263828-2.103996-.263828-.997022 0-1.913388.173443-2.749126.520332-.835738.34689-1.554168.842785-2.155313 1.487709-.601145.644919-1.070324 1.429073-1.407551 2.352484-.337228.923406-.505839 1.961614-.505839 3.114656 0 1.192128.168611 2.252323.505839 3.180615.337227.928299.794188 1.710006 1.370896 2.345161.576708.635147 1.25604 1.121269 2.038017 1.458389.781978.337121 1.62259.505677 2.521864.505677.537609 0 1.023894-.029316 1.458868-.087944.434975-.058632.835732-.151459 1.202282-.278488.366553-.12703.713551-.290699 1.041005-.491017.327451-.200313.652456-.447044.975021-.740192.097748-.087944.20038-.158783.307903-.212525.107519-.053749.224816-.080616.351887-.080616z"/><path d="m71.952087 21.347797s-1.46363-.332271-1.280296-2.020755c.221962-2.044251 2.130127-4.708828 2.452408-6.395214.322288-1.686387-.363838-4.770924-.363838-4.770924-.112129-.71732-.086106-2.321083.11354-2.004875.086663.13726 1.598648 4.593582 1.598648 4.593582s.681618 2.556614.749085 4.514191c.067467 1.957576-1.177132 3.872364-1.177132 3.872364s-1.09938 2.275646-2.092415 2.211631z"/></g></svg>